<svg width="760" height="760" viewBox="0 0 760 760" fill="none" xmlns="http://www.w3.org/2000/svg">
<g clip-path="url(#clip0_275_2872)">
<path d="M0 760H760V0.00012207H0V760Z" fill="#F2E5DC"/>
<path d="M37.1807 632.981H722.172V631.46H37.1807V632.981Z" fill="#602320"/>
<mask id="mask0_275_2872" style="mask-type:luminance" maskUnits="userSpaceOnUse" x="0" y="0" width="760" height="760">
<path d="M0 0.00012207H760V760H0V0.00012207Z" fill="white"/>
</mask>
<g mask="url(#mask0_275_2872)">
<path d="M500.146 387.375C499.799 390.845 499.351 394.283 498.725 397.665C498.24 400.255 497.571 402.798 496.924 405.347C496.597 406.644 496.346 407.969 495.98 409.251C495.176 412.035 494.191 414.758 493.198 417.479C492.821 418.509 492.513 419.575 492.108 420.593C491.116 423.103 489.95 425.539 488.796 427.982C488.225 429.187 487.72 430.427 487.111 431.612C486.071 433.639 484.879 435.589 483.729 437.559C482.824 439.099 481.981 440.678 481.012 442.177C480.052 443.67 478.969 445.085 477.946 446.538C476.621 448.404 475.335 450.301 473.912 452.092C473.092 453.129 472.177 454.097 471.321 455.108C469.568 457.175 467.822 459.253 465.938 461.2C465.191 461.975 464.367 462.682 463.596 463.437C461.52 465.48 459.433 467.514 457.215 469.408C456.203 470.27 455.098 471.045 454.055 471.878C452 473.519 449.959 475.182 447.8 476.695C444.999 478.648 442.073 480.463 439.079 482.202C438.606 482.477 438.167 482.802 437.688 483.073C434.046 485.123 430.267 487.011 426.355 488.719C422.479 490.411 418.562 491.883 414.619 493.155C413.672 493.457 412.681 493.661 411.723 493.942C408.794 494.81 405.862 495.648 402.912 496.289C399.929 496.932 396.88 497.386 393.821 497.809C392.863 497.944 391.907 498.162 390.948 498.273C386.832 498.745 382.656 499.024 378.426 499.084C374.158 499.145 369.937 498.987 365.775 498.624C365.21 498.575 364.655 498.457 364.091 498.397C360.665 498.052 357.268 497.611 353.928 496.994C351.324 496.506 348.766 495.833 346.202 495.182C344.924 494.86 343.613 494.614 342.35 494.251C339.546 493.442 336.804 492.453 334.066 491.451C333.052 491.08 332.01 490.776 331.01 490.381C328.489 489.384 326.042 488.215 323.592 487.057C322.396 486.488 321.161 485.986 319.985 485.383C317.948 484.339 315.992 483.143 314.013 481.986C312.481 481.086 310.911 480.247 309.42 479.285C307.918 478.318 306.492 477.228 305.03 476.196C303.172 474.878 301.288 473.602 299.509 472.188C298.457 471.355 297.475 470.426 296.448 469.557C294.396 467.816 292.333 466.084 290.4 464.214C289.611 463.454 288.893 462.615 288.123 461.832C286.094 459.765 284.07 457.69 282.187 455.485C281.324 454.469 280.546 453.364 279.713 452.318C278.071 450.265 276.413 448.228 274.902 446.071C272.944 443.267 271.123 440.333 269.383 437.331C269.111 436.865 268.788 436.428 268.521 435.959C266.472 432.315 264.584 428.537 262.874 424.626C261.182 420.747 259.709 416.828 258.437 412.884C258.144 411.967 257.948 411.008 257.676 410.081C256.797 407.12 255.952 404.157 255.304 401.177C254.662 398.191 254.206 395.138 253.783 392.075C253.649 391.123 253.432 390.173 253.321 389.222C252.85 385.104 252.57 380.927 252.511 376.695C252.45 372.426 252.608 368.203 252.97 364.038C253.015 363.517 253.125 363.008 253.178 362.488C253.525 359.018 253.974 355.58 254.599 352.198C255.083 349.607 255.754 347.065 256.402 344.516C256.727 343.219 256.978 341.893 257.346 340.612C258.148 337.829 259.132 335.105 260.126 332.386C260.504 331.354 260.813 330.29 261.217 329.27C262.207 326.768 263.368 324.337 264.517 321.902C265.093 320.689 265.601 319.44 266.217 318.247C267.256 316.218 268.448 314.266 269.602 312.293C270.501 310.758 271.344 309.185 272.307 307.692C273.274 306.19 274.362 304.766 275.394 303.305C276.714 301.443 277.995 299.554 279.41 297.771C280.231 296.734 281.149 295.768 282.003 294.755C283.757 292.688 285.502 290.61 287.386 288.663C288.136 287.885 288.963 287.177 289.736 286.418C291.812 284.38 293.894 282.349 296.107 280.46C297.124 279.592 298.232 278.815 299.283 277.978C301.333 276.337 303.37 274.678 305.527 273.168C308.336 271.21 311.266 269.388 314.271 267.646C314.735 267.376 315.165 267.056 315.633 266.792C319.277 264.741 323.055 262.853 326.968 261.145C330.845 259.45 334.764 257.98 338.708 256.708C339.633 256.412 340.601 256.214 341.536 255.938C344.489 255.064 347.444 254.218 350.417 253.574C353.367 252.939 356.384 252.49 359.411 252.069C360.402 251.929 361.39 251.704 362.381 251.589C366.494 251.118 370.669 250.839 374.9 250.779C379.166 250.718 383.387 250.877 387.549 251.238C388.125 251.289 388.688 251.409 389.262 251.469C392.676 251.814 396.061 252.252 399.39 252.867C401.989 253.354 404.543 254.025 407.099 254.674C408.39 255.001 409.708 255.249 410.981 255.614C413.777 256.421 416.511 257.409 419.238 258.406C420.258 258.778 421.31 259.084 422.318 259.482C424.835 260.479 427.28 261.647 429.729 262.805C430.928 263.373 432.163 263.876 433.342 264.483C435.374 265.524 437.328 266.717 439.302 267.871C440.837 268.771 442.412 269.614 443.903 270.578C445.406 271.545 446.834 272.636 448.296 273.668C450.152 274.983 452.037 276.261 453.816 277.675C454.868 278.508 455.849 279.437 456.876 280.306C458.928 282.048 460.989 283.779 462.926 285.649C463.712 286.409 464.432 287.248 465.201 288.031C467.232 290.098 469.255 292.173 471.137 294.378C472 295.394 472.777 296.499 473.613 297.544C475.253 299.598 476.913 301.635 478.422 303.79C480.38 306.598 482.199 309.531 483.941 312.532C484.213 312.998 484.534 313.433 484.803 313.906C486.854 317.548 488.74 321.326 490.45 325.239C492.142 329.116 493.615 333.035 494.887 336.979C495.18 337.899 495.376 338.861 495.651 339.79C496.528 342.748 497.374 345.709 498.021 348.685C498.659 351.656 499.111 354.696 499.535 357.744C499.67 358.712 499.891 359.677 500.003 360.646C500.474 364.762 500.754 368.937 500.813 373.168C500.874 377.437 500.718 381.66 500.356 385.823C500.309 386.346 500.199 386.855 500.146 387.375ZM553.527 392.754C553.031 397.725 552.388 402.649 551.492 407.492C550.797 411.202 549.838 414.844 548.911 418.497C548.443 420.353 548.085 422.251 547.558 424.086C546.41 428.073 544.998 431.975 543.576 435.869C543.036 437.348 542.594 438.873 542.014 440.332C540.592 443.927 538.923 447.416 537.272 450.914C536.453 452.641 535.729 454.418 534.857 456.114C533.369 459.019 531.66 461.811 530.013 464.632C528.717 466.839 527.508 469.102 526.123 471.247C524.749 473.386 523.197 475.412 521.729 477.491C519.833 480.168 517.989 482.884 515.954 485.447C514.778 486.932 513.467 488.318 512.241 489.767C509.731 492.729 507.229 495.704 504.533 498.495C503.463 499.604 502.28 500.616 501.178 501.699C498.203 504.623 495.214 507.537 492.037 510.247C490.587 511.483 489.006 512.593 487.51 513.786C484.568 516.139 481.645 518.519 478.551 520.685C474.54 523.483 470.348 526.084 466.06 528.574C465.382 528.968 464.753 529.434 464.07 529.822C458.852 532.757 453.441 535.461 447.838 537.908C442.286 540.334 436.675 542.441 431.027 544.26C429.671 544.695 428.252 544.985 426.881 545.39C422.685 546.63 418.484 547.834 414.26 548.752C409.989 549.67 405.62 550.322 401.238 550.93C399.866 551.122 398.498 551.433 397.125 551.593C391.229 552.268 385.248 552.667 379.188 552.754C373.074 552.841 367.031 552.614 361.069 552.097C360.257 552.024 359.466 551.854 358.657 551.771C353.75 551.277 348.883 550.647 344.101 549.761C340.371 549.063 336.708 548.1 333.036 547.166C331.203 546.703 329.325 546.352 327.517 545.83C323.501 544.674 319.573 543.256 315.653 541.821C314.201 541.29 312.707 540.855 311.272 540.288C307.664 538.861 304.16 537.188 300.649 535.528C298.935 534.713 297.168 533.994 295.484 533.129C292.567 531.634 289.764 529.921 286.931 528.265C284.735 526.978 282.487 525.774 280.353 524.397C278.199 523.011 276.159 521.45 274.063 519.971C271.403 518.086 268.703 516.254 266.156 514.231C264.648 513.038 263.243 511.708 261.772 510.463C258.832 507.969 255.879 505.488 253.11 502.81C251.98 501.722 250.95 500.521 249.848 499.399C246.94 496.438 244.044 493.465 241.346 490.306C240.109 488.853 238.996 487.269 237.8 485.771C235.452 482.832 233.074 479.914 230.911 476.825C228.107 472.807 225.5 468.604 223.006 464.307C222.617 463.636 222.156 463.016 221.772 462.338C218.838 457.123 216.134 451.71 213.685 446.108C211.259 440.552 209.153 434.939 207.33 429.29C206.909 427.976 206.63 426.603 206.237 425.275C204.982 421.035 203.77 416.79 202.84 412.522C201.921 408.245 201.268 403.873 200.664 399.486C200.472 398.123 200.16 396.762 200.001 395.399C199.327 389.501 198.926 383.519 198.84 377.457C198.754 371.342 198.979 365.295 199.498 359.329C199.563 358.583 199.721 357.854 199.797 357.109C200.294 352.138 200.936 347.214 201.832 342.371C202.526 338.662 203.486 335.019 204.412 331.367C204.882 329.51 205.239 327.612 205.766 325.777C206.915 321.79 208.326 317.888 209.747 313.992C210.29 312.515 210.732 310.992 211.31 309.533C212.728 305.947 214.392 302.468 216.038 298.979C216.864 297.24 217.59 295.45 218.472 293.743C219.961 290.835 221.668 288.04 223.321 285.214C224.61 283.016 225.815 280.764 227.197 278.625C228.58 276.474 230.138 274.434 231.617 272.341C233.506 269.675 235.341 266.97 237.37 264.415C238.546 262.93 239.858 261.545 241.083 260.096C243.594 257.134 246.093 254.159 248.793 251.368C249.866 250.257 251.052 249.24 252.158 248.154C255.13 245.234 258.113 242.326 261.284 239.619C262.742 238.378 264.326 237.263 265.83 236.065C268.769 233.717 271.687 231.339 274.776 229.176C278.798 226.372 282.997 223.762 287.3 221.269C287.963 220.88 288.582 220.423 289.252 220.044C294.47 217.108 299.883 214.404 305.486 211.955C311.04 209.53 316.652 207.422 322.3 205.603C323.625 205.177 325.012 204.893 326.352 204.499C330.579 203.245 334.814 202.035 339.072 201.111C343.297 200.202 347.619 199.559 351.952 198.957C353.372 198.757 354.787 198.434 356.207 198.269C362.101 197.595 368.079 197.194 374.137 197.109C380.248 197.022 386.295 197.249 392.256 197.766C393.08 197.84 393.887 198.012 394.71 198.097C399.6 198.591 404.447 199.217 409.215 200.1C412.936 200.796 416.593 201.759 420.256 202.689C422.105 203.156 423.993 203.511 425.817 204.036C429.819 205.189 433.737 206.603 437.645 208.033C439.104 208.567 440.611 209.004 442.053 209.574C445.659 211.002 449.161 212.675 452.67 214.334C454.386 215.148 456.156 215.869 457.843 216.737C460.754 218.228 463.552 219.938 466.379 221.59C468.58 222.879 470.834 224.086 472.971 225.468C475.124 226.852 477.167 228.413 479.263 229.892C481.921 231.776 484.621 233.607 487.168 235.632C488.675 236.825 490.082 238.155 491.552 239.4C494.492 241.894 497.445 244.375 500.216 247.053C501.344 248.141 502.374 249.342 503.475 250.464C506.384 253.425 509.281 256.398 511.978 259.557C513.217 261.01 514.328 262.594 515.522 264.092C517.872 267.032 520.251 269.95 522.411 273.038C525.217 277.056 527.824 281.258 530.318 285.556C530.706 286.227 531.168 286.848 531.551 287.523C534.487 292.741 537.19 298.152 539.639 303.757C542.063 309.311 544.173 314.923 545.994 320.572C546.415 321.89 546.696 323.267 547.09 324.599C548.345 328.834 549.555 333.076 550.482 337.34C551.399 341.597 552.046 345.949 552.653 350.314C552.846 351.701 553.162 353.084 553.322 354.47C553.998 360.365 554.398 366.346 554.483 372.406C554.571 378.521 554.345 384.568 553.825 390.534C553.76 391.28 553.603 392.009 553.527 392.754ZM592.377 422.212C593.097 418.912 593.713 415.58 594.283 412.228C594.479 411.09 594.696 409.958 594.874 408.816C595.003 407.985 595.186 407.168 595.304 406.332L652.696 395.423L652.003 346.607L594.327 337.333C594.199 336.593 594.014 335.873 593.878 335.136C593.457 332.842 592.982 330.553 592.485 328.262C591.991 325.965 591.477 323.679 590.91 321.41C590.729 320.685 590.601 319.957 590.411 319.232L639.103 286.955L619.563 242.213L562.793 255.994C562.338 255.281 561.835 254.612 561.372 253.905C560.741 252.945 560.08 252.008 559.432 251.057C557.525 248.237 555.585 245.45 553.562 242.739C553.521 242.685 553.484 242.627 553.442 242.571L586.339 194.236L551.331 160.206L503.948 194.463C503.294 194.001 502.605 193.589 501.947 193.133C500.069 191.842 498.172 190.585 496.255 189.354C494.335 188.112 492.396 186.898 490.433 185.715C489.752 185.306 489.094 184.852 488.409 184.45L500.027 127.149L454.573 109.327L424.151 159.256C424.084 159.243 424.014 159.232 423.947 159.217C420.644 158.496 417.308 157.881 413.953 157.311C412.819 157.115 411.69 156.897 410.551 156.72C409.715 156.59 408.9 156.406 408.063 156.288L397.155 98.8956L348.338 99.5888L339.063 157.268C338.327 157.394 337.611 157.578 336.875 157.712C334.576 158.135 332.279 158.612 329.979 159.112C327.69 159.604 325.411 160.117 323.15 160.679C322.422 160.863 321.69 160.992 320.962 161.182L288.685 112.491L243.944 132.03L257.724 188.801C257.011 189.255 256.344 189.758 255.639 190.22C254.675 190.853 253.737 191.517 252.786 192.163C249.963 194.072 247.177 196.012 244.467 198.035C244.414 198.074 244.356 198.111 244.303 198.15L195.967 165.254L161.937 200.264L196.193 247.646C195.733 248.298 195.319 248.988 194.863 249.646C193.573 251.525 192.316 253.423 191.086 255.337C189.844 257.258 188.63 259.196 187.447 261.157C187.038 261.84 186.584 262.496 186.181 263.183L128.878 251.566L111.058 297.02L160.987 327.444C160.972 327.511 160.964 327.581 160.947 327.65C160.227 330.948 159.613 334.283 159.041 337.636C158.845 338.773 158.628 339.905 158.449 341.047C158.321 341.88 158.138 342.695 158.018 343.531L100.626 354.44L101.321 403.256L158.999 412.529C159.126 413.27 159.31 413.99 159.446 414.727C159.867 417.021 160.341 419.31 160.838 421.601C161.334 423.898 161.847 426.184 162.414 428.453C162.597 429.178 162.724 429.906 162.913 430.631L114.221 462.907L133.761 507.65L190.531 493.869C190.986 494.581 191.489 495.248 191.949 495.953C192.583 496.917 193.247 497.858 193.895 498.811C195.803 501.632 197.742 504.418 199.765 507.127C199.805 507.181 199.841 507.238 199.881 507.292L166.985 555.627L201.995 589.657L249.376 555.4C250.026 555.859 250.713 556.27 251.369 556.723C253.252 558.019 255.154 559.279 257.077 560.514C258.995 561.752 260.925 562.965 262.883 564.143C263.567 564.554 264.225 565.01 264.914 565.413L253.297 622.714L298.751 640.536L329.175 590.607C329.242 590.622 329.31 590.631 329.377 590.645C332.679 591.367 336.018 591.981 339.371 592.552C340.507 592.748 341.636 592.966 342.774 593.143C343.609 593.273 344.425 593.455 345.261 593.575L356.169 650.967L404.988 650.273L414.26 592.595C414.997 592.469 415.715 592.285 416.45 592.151C418.75 591.727 421.045 591.251 423.342 590.752C425.634 590.26 427.914 589.746 430.179 589.182C430.904 588.998 431.637 588.869 432.36 588.679L464.639 637.374L509.38 617.833L495.6 561.064C496.311 560.609 496.977 560.106 497.682 559.646C498.649 559.01 499.591 558.343 500.547 557.696C503.364 555.789 506.149 553.85 508.856 551.828C508.91 551.789 508.968 551.754 509.023 551.711L557.359 584.609L591.386 549.6L557.129 502.219C557.59 501.568 558 500.882 558.452 500.227C559.748 498.341 561.011 496.436 562.247 494.512C563.483 492.6 564.693 490.671 565.869 488.718C566.281 488.031 566.74 487.37 567.143 486.68L624.446 498.297L642.266 452.841L592.336 422.42C592.351 422.35 592.361 422.28 592.377 422.212Z" fill="#E8D3C5"/>
<path d="M100.929 159.032C93.2943 161.919 84.7626 158.068 81.8761 150.432C78.9881 142.795 82.8398 134.265 90.4763 131.379C98.1112 128.492 106.643 132.341 109.529 139.977C112.417 147.614 108.566 156.146 100.929 159.032ZM106.187 172.937C90.8715 178.728 73.7608 171.005 67.9696 155.69C62.1815 140.373 69.903 123.263 85.2186 117.472C100.534 111.683 117.645 119.406 123.436 134.721C129.226 150.038 121.502 167.147 106.187 172.937ZM156.777 128.096L152.822 117.632L139.671 120.131C135.629 113.025 130.025 107.194 123.472 102.9L126.792 89.9208L116.596 85.3182L109.057 96.3944C101.504 94.3212 93.4235 93.9746 85.4207 95.6451L78.5944 84.1296L68.1292 88.0861L70.6281 101.237C63.5236 105.279 57.6914 110.885 53.3974 117.436L40.4181 114.116L35.8155 124.314L46.8918 131.851C44.8185 139.404 44.4719 147.486 46.1439 155.487L34.6284 162.314L38.5835 172.777L51.7345 170.279C55.7762 177.385 61.3804 183.217 67.9331 187.509L64.6135 200.489L74.8096 205.091L82.3488 194.016C89.9017 196.088 97.9851 196.435 105.986 194.764L112.811 206.28L123.276 202.323L120.777 189.174C127.882 185.132 133.714 179.526 138.008 172.975L150.987 176.293L155.59 166.097L144.514 158.559C146.587 151.007 146.934 142.925 145.263 134.922L156.777 128.096Z" fill="#E8D3C5"/>
<path d="M684.198 537.613C677.779 537.611 672.579 532.407 672.581 525.991C672.582 519.574 677.787 514.372 684.206 514.374C690.623 514.377 695.822 519.58 695.82 525.997C695.82 532.415 690.616 537.616 684.198 537.613ZM719.198 532.67L719.202 519.34L713.941 518.07C713.238 515.416 712.184 512.908 710.841 510.589L713.669 505.968L704.244 496.54L699.622 499.364C697.304 498.017 694.796 496.964 692.145 496.257L690.879 490.998L677.547 490.993L676.277 496.252C673.625 496.958 671.117 498.009 668.796 499.355L664.175 496.527L654.747 505.95L657.571 510.572C656.226 512.892 655.171 515.4 654.464 518.052L649.206 519.317L649.202 532.647L654.461 533.918C655.165 536.569 656.218 539.078 657.563 541.398L654.734 546.019L664.157 555.447L668.779 552.623C671.1 553.97 673.607 555.023 676.258 555.73L677.525 560.991L690.856 560.995L692.126 555.734C694.777 555.029 697.285 553.977 699.606 552.634L704.227 555.461L713.657 546.037L710.83 541.414C712.177 539.096 713.232 536.587 713.937 533.936L719.198 532.67Z" fill="#E8D3C5"/>
<path d="M189.544 106.556C184.689 106.555 180.755 102.618 180.756 97.7632C180.758 92.9084 184.695 88.9746 189.55 88.9761C194.403 88.9776 198.337 92.9144 198.335 97.7693C198.334 102.624 194.397 106.558 189.544 106.556ZM216.02 102.817L216.024 92.732L212.046 91.7714C211.511 89.7665 210.716 87.868 209.699 86.1124L211.837 82.6164L204.71 75.4846L201.213 77.6217C199.457 76.6033 197.56 75.8068 195.554 75.2703L194.596 71.2924L184.511 71.2894L183.552 75.2688C181.545 75.8008 179.647 76.5972 177.893 77.6141L174.397 75.4755L167.265 82.6043L169.401 86.1003C168.384 87.8544 167.586 89.7513 167.051 91.7577L163.071 92.7168L163.068 102.801L167.048 103.761C167.581 105.768 168.376 107.665 169.394 109.42L167.254 112.916L174.383 120.048L177.881 117.911C179.635 118.929 181.532 119.727 183.538 120.262L184.496 124.24L194.579 124.243L195.54 120.265C197.548 119.732 199.445 118.935 201.199 117.918L204.695 120.057L211.828 112.928L209.691 109.432C210.71 107.678 211.506 105.781 212.041 103.775L216.02 102.817Z" fill="#E8D3C5"/>
<path d="M120.557 404.463C113.891 417.819 96.0016 412.124 93.7247 411.812C81.972 410.197 58.862 393.583 58.862 393.583C52.6421 389.74 55.5727 384.565 57.5852 385.355C58.526 385.823 54.1469 383.314 53.2638 382.771C45.6365 377.696 50.8683 372.665 54.3491 373.841C47.8192 370.937 50.5309 363.572 54.8811 365.118C50.4412 362.525 53.2076 355.889 60.3546 358.495C64.4373 359.6 96.2327 374.124 96.2327 374.124C97.4168 371.213 84.9345 365.808 87.0184 358.293C87.4197 357.568 88.1904 357.515 88.7801 357.773C106.576 368.056 113.409 378.989 116.12 382.581C120.22 388.009 124.57 396.424 120.557 404.463Z" fill="#FCA886"/>
<path d="M76.446 395.035L57.5342 386.283L58.0115 385.249L76.9233 394L76.446 395.035Z" fill="#602320"/>
<path d="M78.7617 387.074L54.1165 374.528L54.6333 373.513L79.2785 386.059L78.7617 387.074Z" fill="#602320"/>
<path d="M82.3613 378.857L54.7733 365.612L55.2658 364.585L82.8538 377.83L82.3613 378.857Z" fill="#602320"/>
<path d="M76.5693 397.807L75.4475 397.61C76.5784 391.204 79.3433 383.703 83.9017 374.674L84.9201 375.188C80.4118 384.115 77.6804 391.514 76.5693 397.807Z" fill="#602320"/>
<path d="M102.08 395.667C91.8578 387.046 95.6487 374.088 95.6882 373.959L96.778 374.29C96.74 374.412 93.1771 386.668 102.815 394.797L102.08 395.667Z" fill="#602320"/>
<path d="M178.406 446.385C159.669 457.669 155.511 477.808 173.79 492.426C180.387 497.702 189.207 499.834 197.899 498.933L198.449 498.877C200.104 498.673 201.483 498.422 202.807 498.094L308.252 468.615C314.822 467.823 320.926 465.59 326.351 461.989C341.694 451.801 348.555 436.628 341.504 420.518C334.19 403.807 318.716 399.309 300.435 402.775L300.128 402.835C298.194 403.226 296.428 403.697 294.771 404.261L190.021 441.892L190.025 441.94L188.659 442.275C184.982 443.118 181.534 444.502 178.406 446.385Z" fill="white"/>
<path d="M106.061 424.165L131.829 394.455L121.306 385.329C119.192 393.911 100.495 413.122 95.5394 415.04L106.061 424.165Z" fill="white"/>
<path d="M201 437.563C174.894 418.41 141.807 387.072 129.983 392.846L105.325 423.6C101.019 435.136 146.554 468.057 172.822 491.766C203.943 516.582 244.898 471.208 201 437.563Z" fill="white"/>
<path d="M105.449 424.158L105.2 423.045C112.564 421.396 128.524 402.735 129.417 392.794L130.551 392.897C129.607 403.42 113.285 422.404 105.449 424.158Z" fill="#602320"/>
<path d="M196.743 447.636L195.746 447.084L200.73 438.083C200.848 437.868 201.081 437.753 201.329 437.797C201.567 437.839 201.754 438.029 201.791 438.27L203.212 447.297L202.087 447.476L200.923 440.086L196.743 447.636Z" fill="#602320"/>
<path d="M77.0384 395.305C77.464 386.243 94.6597 381.75 97.4201 364.951C98.1983 358.836 95.5793 355.668 95.5793 355.668H74.4863H71.8035H50.7089C50.7089 355.668 48.09 358.836 48.8697 364.951C51.6285 381.75 68.8258 386.243 69.2499 395.305C69.674 404.368 43.1013 409.18 49.917 434.795H68.7605H77.5293H95.8985C102.716 409.18 76.6143 404.368 77.0384 395.305Z" fill="white"/>
<path d="M98.533 356.209H47.7559V350.178H98.533V356.209Z" fill="#E0654A"/>
<path d="M100.9 346.36H45.3893V350.177H100.9V346.36Z" fill="#E0654A"/>
<path d="M47.7559 434.254H98.533V440.286H47.7559V434.254Z" fill="#E0654A"/>
<path d="M45.3893 444.104H100.9V440.285H45.3893V444.104Z" fill="#E0654A"/>
<path d="M98.533 440.855H47.7559V439.715H98.533V440.855Z" fill="#602320"/>
<path d="M98.533 350.749H47.7559V349.609H98.533V350.749Z" fill="#602320"/>
<path d="M94.2705 423.019L89.2834 420.747C81.3003 417.108 75.8679 409.704 75.0136 401.241C74.7491 398.625 74.588 396.389 74.6427 395.202C74.8723 390.3 78.8106 386.722 82.9784 382.932C84.4878 381.561 86.0579 380.132 87.5521 378.568H58.7344C60.2301 380.131 61.8003 381.561 63.3111 382.932C67.479 386.722 71.4173 390.3 71.6468 395.202C71.6985 396.336 71.5374 398.398 71.2683 400.829C70.3077 409.516 64.7247 417.1 56.5031 420.806L51.5904 423.019C51.0751 425.769 51.066 428.879 51.826 432.487H93.9908C94.7554 428.879 94.7615 425.769 94.2705 423.019Z" fill="#DCA254"/>
<path d="M81.8195 374.169L96.9146 378.331C99.339 378.723 105.054 369.825 105.054 369.825C105.054 369.825 102.572 366.991 97.6579 366.467L80.4591 364.468C77.6106 364.208 76.5938 364.686 76.2426 365.745C75.893 366.806 75.0342 372.226 81.8195 374.169Z" fill="#FCA886"/>
<path d="M80.6736 367.714C79.7586 367.714 78.6414 367.564 77.278 367.179L77.5865 366.082C82.6816 367.517 83.5556 365.348 83.5632 365.325L84.6439 365.688C84.6104 365.793 83.9356 367.714 80.6736 367.714Z" fill="#602320"/>
<path d="M634.593 404.463C641.26 417.819 659.15 412.124 661.427 411.812C673.179 410.197 696.29 393.583 696.29 393.583C702.51 389.74 699.578 384.565 697.567 385.355C696.625 385.823 701.004 383.314 701.887 382.771C709.514 377.696 704.282 372.665 700.803 373.841C707.331 370.937 704.62 363.572 700.27 365.118C704.709 362.525 701.945 355.889 694.796 358.495C690.713 359.6 658.918 374.124 658.918 374.124C657.734 371.213 651.683 367.906 647.428 372.288C642.915 376.938 640.427 380.731 639.03 382.581C634.931 388.009 630.581 396.424 634.593 404.463Z" fill="#FCA886"/>
<path d="M678.706 395.035L678.229 394L697.139 385.249L697.616 386.283L678.706 395.035Z" fill="#602320"/>
<path d="M676.389 387.074L675.872 386.059L700.519 373.513L701.036 374.528L676.389 387.074Z" fill="#602320"/>
<path d="M672.789 378.857L672.297 377.83L699.885 364.585L700.377 365.612L672.789 378.857Z" fill="#602320"/>
<path d="M678.581 397.807C677.473 391.517 674.742 384.12 670.23 375.188L671.249 374.674C675.81 383.706 678.575 391.209 679.703 397.61L678.581 397.807Z" fill="#602320"/>
<path d="M653.072 395.667L652.337 394.797C661.99 386.654 658.411 374.413 658.373 374.29L659.462 373.959C659.502 374.088 663.293 387.046 653.072 395.667Z" fill="#602320"/>
<path d="M576.744 446.385C595.483 457.669 599.64 477.808 581.362 492.426C574.764 497.702 565.943 499.834 557.252 498.933L556.702 498.877C555.046 498.673 553.668 498.422 552.344 498.094L446.9 468.615C440.329 467.823 434.225 465.59 428.801 461.989C413.457 451.801 406.597 436.628 413.647 420.518C420.961 403.807 436.435 399.309 454.716 402.775L455.024 402.835C456.958 403.226 458.722 403.697 460.381 404.261L565.132 441.892L565.127 441.94L566.492 442.275C570.169 443.118 573.616 444.502 576.744 446.385Z" fill="white"/>
<path d="M649.09 424.165L623.321 394.455L633.844 385.329C635.959 393.911 654.656 413.122 659.611 415.04L649.09 424.165Z" fill="white"/>
<path d="M554.151 437.563C580.257 418.41 613.345 387.072 625.168 392.846L649.827 423.6C654.132 435.136 608.597 468.057 582.328 491.766C551.208 516.582 510.253 471.208 554.151 437.563Z" fill="white"/>
<path d="M649.703 424.158C641.867 422.404 625.544 403.42 624.6 392.897L625.734 392.794C626.626 402.735 642.586 421.396 649.952 423.045L649.703 424.158Z" fill="#602320"/>
<path d="M558.409 447.636L554.228 440.086L553.064 447.476L551.939 447.297L553.36 438.27C553.396 438.029 553.583 437.839 553.822 437.797C554.07 437.751 554.302 437.868 554.421 438.083L559.406 447.084L558.409 447.636Z" fill="#602320"/>
<path d="M705.622 417.64H666.294L659.951 341.819H711.964L705.622 417.64Z" fill="white"/>
<path d="M708.105 398.265L711.659 361.194H660.256L663.808 398.265H708.105Z" fill="#E0654A"/>
<path d="M713.952 343.793L713.448 340.397C713.322 339.552 712.698 338.937 711.97 338.937H659.638C658.931 338.937 658.325 339.534 658.203 340.355L657.691 343.793H713.952Z" fill="#602320"/>
<path d="M709.231 339.729L708.807 334.426C708.705 333.178 707.793 332.224 706.7 332.224H665.091C663.916 332.224 662.933 333.251 662.827 334.595L662.413 339.729H709.231Z" fill="#602320"/>
<path d="M692.849 368.09C686.43 368.09 681.21 373.312 681.21 379.729C681.21 386.148 686.43 391.369 692.849 391.369C699.268 391.369 704.488 386.148 704.488 379.729C704.488 373.312 699.268 368.09 692.849 368.09ZM692.849 392.509C685.802 392.509 680.07 386.776 680.07 379.729C680.07 372.682 685.802 366.95 692.849 366.95C699.896 366.95 705.628 372.682 705.628 379.729C705.628 386.776 699.896 392.509 692.849 392.509Z" fill="#602320"/>
<path d="M692.849 387.684C688.464 387.684 684.896 384.115 684.896 379.729C684.896 375.344 688.464 371.775 692.849 371.775V372.915C689.092 372.915 686.036 375.972 686.036 379.729C686.036 383.487 689.092 386.544 692.849 386.544C696.607 386.544 699.663 383.487 699.663 379.729H700.803C700.803 384.115 697.236 387.684 692.849 387.684Z" fill="#602320"/>
<path d="M670.554 376.739L655.459 380.902C653.034 381.294 647.319 372.393 647.319 372.393C647.319 372.393 649.801 369.561 654.717 369.037L671.916 367.038C674.763 366.778 675.78 367.255 676.131 368.315C676.48 369.376 677.339 374.796 670.554 376.739Z" fill="#FCA886"/>
<path d="M671.7 370.284C668.436 370.284 667.763 368.362 667.729 368.258L668.81 367.894C668.818 367.917 669.686 370.086 674.787 368.651L675.095 369.749C673.732 370.133 672.615 370.284 671.7 370.284Z" fill="#602320"/>
<path d="M588.441 579.76C579.931 592.024 593.521 604.979 594.889 606.825C601.952 616.354 627.627 628.64 627.627 628.64C633.985 632.249 637.116 627.192 635.456 625.807C634.593 625.205 638.899 627.841 639.799 628.356C647.916 632.605 649.813 625.599 647.11 623.112C652.795 627.444 657.949 621.528 654.503 618.453C658.911 621.101 663.401 615.488 657.683 610.472C654.75 607.421 626.736 586.515 626.736 586.515C628.721 584.079 639.457 592.429 645.047 586.991C645.488 586.29 645.166 585.589 644.657 585.196C627.089 574.53 614.217 573.791 609.764 573.138C603.035 572.15 593.563 572.381 588.441 579.76Z" fill="#FCA886"/>
<path d="M634.667 626.298L617.905 613.916L618.581 613L635.344 625.38L634.667 626.298Z" fill="#602320"/>
<path d="M646.62 623.647L623.774 608.061L624.416 607.12L647.261 622.706L646.62 623.647Z" fill="#602320"/>
<path d="M654.122 618.787L629.25 600.956L629.914 600.029L654.786 617.862L654.122 618.787Z" fill="#602320"/>
<path d="M616.128 616.031L615.415 615.14C620.4 611.141 625.576 605.19 631.236 596.949L632.179 597.593C626.452 605.929 621.201 611.959 616.128 616.031Z" fill="#602320"/>
<path d="M612.158 593.099C609.936 593.099 607.545 592.71 605.034 591.738L605.443 590.676C617.199 595.221 626.24 586.21 626.329 586.116L627.143 586.916C627.068 586.992 620.965 593.099 612.158 593.099Z" fill="#602320"/>
<path d="M523.301 543.074C527.49 564.544 515.334 581.129 492.235 577.367C483.895 576.006 476.401 570.891 471.241 563.839L470.915 563.393C469.955 562.028 469.218 560.838 468.575 559.636L419.76 461.631C415.942 456.224 413.508 450.199 412.543 443.759C409.816 425.546 416.475 410.282 433.154 404.714C450.459 398.938 464.171 407.405 473.854 423.292L474.015 423.561C475.021 425.259 475.855 426.885 476.547 428.492L518.849 531.446L518.811 531.475L519.478 532.712C521.316 536.006 522.602 539.491 523.301 543.074Z" fill="white"/>
<path d="M578.126 601.94L591.803 565.066L604.861 569.91C598.351 575.888 590.487 601.517 591.186 606.784L578.126 601.94Z" fill="white"/>
<path d="M520.76 525.116C550.102 538.808 593.484 552.769 594.101 565.913L578.977 602.315C570.929 611.634 520.177 587.519 486.763 575.872C450.048 560.503 470.163 502.784 520.76 525.116Z" fill="white"/>
<path d="M578.429 602.473C576.202 594.757 585.006 571.323 593.784 565.439L594.419 566.386C586.129 571.943 577.432 594.905 579.525 602.158L578.429 602.473Z" fill="#602320"/>
<path d="M509.146 532.591L508.199 531.959L513.511 524.006L506.208 526.46L505.846 525.379L514.732 522.392C514.958 522.312 515.217 522.392 515.366 522.587C515.513 522.78 515.522 523.047 515.385 523.249L509.146 532.591Z" fill="#602320"/>
<path d="M498.506 483.429L487.451 460.069L488.48 459.583L499.536 482.942L498.506 483.429Z" fill="#602320"/>
<path d="M713.025 612.356L630.837 584.781C627.212 583.567 623.289 585.519 622.073 589.142L601.381 650.822C600.165 654.446 602.116 658.369 605.74 659.585L687.928 687.159C691.552 688.375 695.475 686.422 696.692 682.799L717.384 621.118C718.6 617.495 716.648 613.572 713.025 612.356Z" fill="white"/>
<path d="M717.355 621.207L622.043 589.231L629.316 567.549L724.628 599.526L717.355 621.207Z" fill="#5B78C8"/>
<path d="M638.831 578.169C637.503 577.724 636.779 576.272 637.224 574.942L640.084 566.423C640.529 565.094 641.981 564.374 643.309 564.819C644.638 565.264 645.361 566.716 644.916 568.044L642.057 576.564C641.611 577.893 640.16 578.615 638.831 578.169Z" fill="white"/>
<path d="M656.782 584.191C655.453 583.746 654.73 582.294 655.177 580.966L658.034 572.446C658.48 571.116 659.931 570.396 661.261 570.841C662.59 571.286 663.312 572.738 662.866 574.068L660.009 582.586C659.562 583.914 658.11 584.636 656.782 584.191Z" fill="white"/>
<path d="M674.732 590.213C673.404 589.768 672.682 588.316 673.127 586.988L675.985 578.468C676.432 577.14 677.883 576.418 679.212 576.863C680.54 577.31 681.264 578.762 680.817 580.09L677.959 588.608C677.514 589.937 676.062 590.66 674.732 590.213Z" fill="white"/>
<path d="M692.684 596.235C691.354 595.79 690.632 594.338 691.078 593.01L693.937 584.49C694.382 583.162 695.834 582.44 697.162 582.885C698.491 583.332 699.214 584.784 698.769 586.112L695.91 594.63C695.464 595.959 694.013 596.682 692.684 596.235Z" fill="white"/>
<path d="M710.635 602.259C709.306 601.812 708.583 600.36 709.028 599.032L711.887 590.512C712.333 589.184 713.784 588.462 715.113 588.907C716.441 589.354 717.165 590.806 716.719 592.134L713.86 600.652C713.415 601.981 711.963 602.704 710.635 602.259Z" fill="white"/>
<path d="M649.182 614.129L655.68 616.311L657.859 609.811L651.363 607.633L649.182 614.129Z" fill="#F2E5DC"/>
<path d="M661.688 618.324L668.184 620.505L670.365 614.006L663.867 611.828L661.688 618.324Z" fill="#F2E5DC"/>
<path d="M674.192 622.521L680.69 624.702L682.871 618.202L676.373 616.023L674.192 622.521Z" fill="#F2E5DC"/>
<path d="M686.698 626.715L693.194 628.896L695.375 622.397L688.877 620.217L686.698 626.715Z" fill="#E0654A"/>
<path d="M701.383 624.413L699.202 630.91L705.701 633.091L707.879 626.593L701.383 624.413Z" fill="#E0654A"/>
<path d="M608.453 652.593L614.95 654.774L617.131 648.274L610.633 646.096L608.453 652.593Z" fill="#F2E5DC"/>
<path d="M620.958 656.789L627.456 658.969L629.636 652.471L623.139 650.291L620.958 656.789Z" fill="#F2E5DC"/>
<path d="M633.464 660.984L639.96 663.165L642.141 656.666L635.643 654.486L633.464 660.984Z" fill="#F2E5DC"/>
<path d="M645.968 665.178L652.466 667.36L654.646 660.86L648.149 658.68L645.968 665.178Z" fill="#F2E5DC"/>
<path d="M620.242 617.453L626.74 619.633L628.92 613.135L622.424 610.955L620.242 617.453Z" fill="#F2E5DC"/>
<path d="M632.747 621.648L639.245 623.829L641.426 617.33L634.928 615.15L632.747 621.648Z" fill="#F2E5DC"/>
<path d="M645.253 625.842L651.749 628.024L653.93 621.524L647.432 619.346L645.253 625.842Z" fill="#F2E5DC"/>
<path d="M657.757 630.039L664.255 632.219L666.436 625.721L659.938 623.541L657.757 630.039Z" fill="#F2E5DC"/>
<path d="M670.263 634.234L676.759 636.415L678.941 629.916L672.443 627.736L670.263 634.234Z" fill="#F2E5DC"/>
<path d="M682.767 638.429L689.265 640.61L691.446 634.11L684.948 631.932L682.767 638.429Z" fill="#E0654A"/>
<path d="M695.273 642.625L701.769 644.805L703.951 638.307L697.453 636.127L695.273 642.625Z" fill="#E0654A"/>
<path d="M616.313 629.166L622.81 631.347L624.991 624.848L618.493 622.668L616.313 629.166Z" fill="#F2E5DC"/>
<path d="M628.818 633.361L635.316 635.542L637.495 629.043L630.999 626.865L628.818 633.361Z" fill="#F2E5DC"/>
<path d="M641.322 637.557L647.82 639.737L650.001 633.238L643.503 631.059L641.322 637.557Z" fill="#F2E5DC"/>
<path d="M653.828 641.752L660.326 643.932L662.506 637.434L656.008 635.254L653.828 641.752Z" fill="#F2E5DC"/>
<path d="M666.332 645.947L672.83 648.128L675.011 641.629L668.513 639.449L666.332 645.947Z" fill="#F2E5DC"/>
<path d="M678.838 650.142L685.335 652.323L687.516 645.824L681.019 643.646L678.838 650.142Z" fill="#E0654A"/>
<path d="M691.342 654.338L697.84 656.518L700.021 650.02L693.523 647.84L691.342 654.338Z" fill="#E0654A"/>
<path d="M612.383 640.879L618.881 643.061L621.06 636.561L614.564 634.381L612.383 640.879Z" fill="#F2E5DC"/>
<path d="M624.888 645.074L631.385 647.255L633.566 640.756L627.068 638.578L624.888 645.074Z" fill="#F2E5DC"/>
<path d="M637.393 649.271L643.891 651.45L646.071 644.952L639.574 642.773L637.393 649.271Z" fill="#F2E5DC"/>
<path d="M649.897 653.465L656.395 655.646L658.576 649.147L652.078 646.967L649.897 653.465Z" fill="#F2E5DC"/>
<path d="M662.403 657.66L668.901 659.841L671.081 653.342L664.584 651.164L662.403 657.66Z" fill="#F2E5DC"/>
<path d="M674.907 661.856L681.405 664.036L683.587 657.538L677.089 655.358L674.907 661.856Z" fill="#E0654A"/>
<path d="M687.413 666.051L693.911 668.232L696.091 661.733L689.595 659.553L687.413 666.051Z" fill="#E0654A"/>
<path d="M649.182 625.774C649.132 625.774 649.081 625.768 649.031 625.755C648.858 625.708 648.717 625.581 648.651 625.414L647.431 622.316L648.49 621.897L649.433 624.286L654.838 620.056L655.541 620.953L649.533 625.653C649.431 625.733 649.308 625.774 649.182 625.774Z" fill="#602320"/>
<path d="M629.315 644.862C629.265 644.862 629.215 644.856 629.165 644.842C628.991 644.795 628.85 644.669 628.785 644.502L627.564 641.404L628.623 640.984L629.566 643.374L634.971 639.144L635.675 640.04L629.666 644.74C629.564 644.821 629.441 644.862 629.315 644.862Z" fill="#602320"/>
<path d="M654.373 653.354C654.322 653.354 654.272 653.348 654.222 653.334C654.049 653.287 653.908 653.161 653.842 652.994L652.622 649.896L653.681 649.476L654.623 651.866L660.029 647.636L660.732 648.533L654.724 653.232C654.622 653.313 654.499 653.354 654.373 653.354Z" fill="#602320"/>
<path d="M678.194 622.553C678.144 622.553 678.094 622.547 678.043 622.534C677.87 622.487 677.729 622.36 677.663 622.193L676.443 619.094L677.502 618.674L678.445 621.064L683.85 616.834L684.554 617.731L678.545 622.432C678.443 622.512 678.32 622.553 678.194 622.553Z" fill="#602320"/>
<path d="M632.197 597.601L619.344 588.659C617.491 587.046 620.679 576.961 620.679 576.961C620.679 576.961 624.442 577.057 627.989 580.501L640.525 592.444C642.547 594.465 642.831 595.555 642.239 596.502C641.649 597.449 638.031 601.576 632.197 597.601Z" fill="#FCA886"/>
<path d="M640.474 596.623C635.141 592.955 636.835 590.126 636.91 590.006L637.881 590.605C637.869 590.626 636.758 592.683 641.122 595.685L640.474 596.623Z" fill="#602320"/>
<path d="M227.503 261.644C217.528 272.75 201.793 262.505 199.681 261.599C188.781 256.919 170.915 234.76 170.915 234.76C165.94 229.405 170.142 225.193 171.871 226.49C172.656 227.191 169.1 223.608 168.392 222.851C162.388 215.93 168.769 212.471 171.812 214.529C166.288 209.995 170.859 203.615 174.644 206.262C171.052 202.582 175.481 196.92 181.678 201.331C185.322 203.482 212.115 225.932 212.115 225.932C214.03 223.441 203.433 214.914 207.438 208.222C208.019 207.631 208.776 207.783 209.274 208.189C223.697 222.831 227.38 235.187 229.04 239.37C231.55 245.692 233.506 254.961 227.503 261.644Z" fill="#FCA886"/>
<path d="M187.482 240.833L171.575 227.371L172.312 226.501L188.217 239.964L187.482 240.833Z" fill="#602320"/>
<path d="M191.83 233.775L171.404 215.13L172.173 214.289L192.599 232.933L191.83 233.775Z" fill="#602320"/>
<path d="M197.483 226.811L174.405 206.71L175.155 205.85L198.231 225.952L197.483 226.811Z" fill="#602320"/>
<path d="M186.866 243.54L185.835 243.05C188.628 237.175 193.288 230.677 200.082 223.187L200.926 223.953C194.207 231.36 189.609 237.767 186.866 243.54Z" fill="#602320"/>
<path d="M212.026 248.255C204.462 237.227 211.561 225.742 211.632 225.628L212.597 226.238C212.529 226.346 205.835 237.212 212.967 247.61L212.026 248.255Z" fill="#602320"/>
<path d="M216.988 341.974C196.267 334.965 178.21 344.804 178.866 368.2C179.102 376.645 183.176 384.754 189.478 390.806L189.876 391.189C191.102 392.323 192.185 393.21 193.29 394.008L283.924 455.436C288.773 459.938 294.421 463.155 300.676 464.966C318.364 470.095 334.378 465.526 342.118 449.736C350.146 433.353 343.578 418.638 329.122 406.927L328.877 406.731C327.329 405.507 325.828 404.463 324.327 403.564L227.92 347.934L227.886 347.969L226.75 347.142C223.731 344.882 220.446 343.144 216.988 341.974Z" fill="white"/>
<path d="M190.969 271.688L230.238 273.835L230.999 259.927C222.921 263.518 196.281 260.52 191.729 257.781L190.969 271.688Z" fill="white"/>
<path d="M238.577 354.912C237.708 322.545 242.187 277.193 230.377 271.391L190.963 270.759C179.209 274.428 181.107 330.586 178.479 365.873C177.946 405.673 238.902 410.217 238.577 354.912Z" fill="white"/>
<path d="M211.787 275.625C202.904 275.625 193.967 273.981 190.6 271.198L191.326 270.32C197.142 275.129 221.672 276.299 230.07 270.911L230.685 271.87C226.631 274.471 219.227 275.625 211.787 275.625Z" fill="#602320"/>
<path d="M236.152 359.355L235.195 358.735L237.486 355.21C234.893 355.991 231.788 356.937 231.497 357.06L230.932 356.073C231.02 356.014 231.184 355.903 238.647 353.67C238.871 353.6 239.123 353.684 239.266 353.875C239.41 354.067 239.418 354.327 239.287 354.527L236.152 359.355Z" fill="#602320"/>
<path d="M271.729 447.859L236.634 424.074L237.272 423.128L272.367 446.915L271.729 447.859Z" fill="#602320"/>
<path d="M178.218 269.721L145.824 249.177C142.916 247.333 142.046 243.446 143.89 240.54L188.844 169.653C190.688 166.746 194.576 165.876 197.482 167.72L229.877 188.263C232.783 190.106 233.654 193.993 231.81 196.901L186.856 267.788C185.012 270.695 181.124 271.565 178.218 269.721Z" fill="#5B78C8"/>
<path d="M187.929 259.699L150.749 236.121L187.772 177.742L224.95 201.319L187.929 259.699Z" fill="white"/>
<path d="M213.821 187.629L204.9 181.972L205.511 181.01L214.432 186.666L213.821 187.629Z" fill="#602320"/>
<path d="M165.715 257.836C164.941 257.836 164.16 257.625 163.459 257.181C162.508 256.576 161.846 255.636 161.6 254.536C161.354 253.434 161.552 252.303 162.155 251.352C162.76 250.399 163.698 249.737 164.798 249.491C165.906 249.243 167.031 249.442 167.984 250.046C168.337 250.268 168.655 250.541 168.924 250.858L168.06 251.599C167.863 251.371 167.633 251.172 167.375 251.01C166.68 250.567 165.855 250.424 165.049 250.604C164.244 250.783 163.558 251.266 163.117 251.961C162.207 253.398 162.634 255.307 164.07 256.217C165.505 257.131 167.417 256.699 168.328 255.266C168.512 254.974 168.644 254.661 168.721 254.334L169.831 254.597C169.725 255.047 169.542 255.477 169.291 255.875C168.486 257.141 167.115 257.836 165.715 257.836Z" fill="#602320"/>
<path d="M533.023 268.494C545.799 276.216 557.871 261.835 559.628 260.353C568.693 252.703 579.336 226.305 579.336 226.305C582.537 219.733 577.292 216.927 576.014 218.67C575.469 219.568 577.828 215.106 578.284 214.175C582.013 205.808 574.902 204.355 572.591 207.211C576.556 201.265 570.326 196.49 567.476 200.125C569.841 195.558 563.955 191.43 559.31 197.455C556.45 200.573 537.352 229.85 537.352 229.85C534.794 228.023 542.45 216.781 536.671 211.544C535.945 211.148 535.265 211.514 534.905 212.047C525.367 230.254 525.442 243.147 525.071 247.631C524.508 254.41 525.334 263.848 533.023 268.494Z" fill="#FCA886"/>
<path d="M565.256 236.937L564.297 236.319L575.596 218.809L576.555 219.426L565.256 236.937Z" fill="#602320"/>
<path d="M559.04 231.449L558.06 230.867L572.176 207.085L573.155 207.667L559.04 231.449Z" fill="#602320"/>
<path d="M551.605 226.431L550.637 225.827L566.866 199.879L567.834 200.484L551.605 226.431Z" fill="#602320"/>
<path d="M566.633 239.345C562.331 234.624 556.065 229.833 547.479 224.7L548.064 223.721C556.748 228.911 563.097 233.771 567.476 238.577L566.633 239.345Z" fill="#602320"/>
<path d="M543.932 251.181L542.845 250.837C546.642 238.814 537.075 230.366 536.98 230.281L537.725 229.419C537.826 229.507 547.959 238.428 543.932 251.181Z" fill="#602320"/>
<path d="M538.162 341.974C558.885 334.965 576.941 344.804 576.284 368.2C576.048 376.645 571.975 384.754 565.673 390.806L565.275 391.189C564.048 392.323 562.966 393.21 561.861 394.008L471.228 455.436C466.377 459.938 460.731 463.155 454.474 464.966C436.788 470.095 420.773 465.526 413.035 449.736C405.004 433.353 411.572 418.638 426.029 406.927L426.274 406.731C427.823 405.507 429.323 404.463 430.825 403.564L527.231 347.934L527.264 347.969L528.401 347.142C531.42 344.882 534.706 343.144 538.162 341.974Z" fill="white"/>
<path d="M564.183 271.688L524.913 273.835L524.153 259.927C532.232 263.518 558.87 260.52 563.422 257.781L564.183 271.688Z" fill="white"/>
<path d="M516.574 354.912C517.443 322.545 512.965 277.193 524.774 271.391L564.188 270.759C575.942 274.428 574.043 330.586 576.673 365.873C577.205 405.673 516.248 410.217 516.574 354.912Z" fill="white"/>
<path d="M543.363 275.625C535.922 275.625 528.519 274.472 524.465 271.87L525.081 270.911C533.482 276.299 558.01 275.127 563.824 270.32L564.551 271.198C561.184 273.981 552.246 275.625 543.363 275.625Z" fill="#602320"/>
<path d="M518.999 359.355L515.863 354.527C515.733 354.327 515.74 354.067 515.885 353.875C516.027 353.684 516.278 353.602 516.503 353.67C523.965 355.903 524.129 356.013 524.219 356.072L523.903 356.546L523.655 357.06C523.365 356.937 520.259 355.991 517.665 355.21L519.955 358.735L518.999 359.355Z" fill="#602320"/>
<path d="M485.053 445.994L484.43 445.041L516.506 424.059L517.131 425.012L485.053 445.994Z" fill="#602320"/>
<path d="M594.316 231.585H541.77C537.313 231.585 533.702 227.973 533.702 223.518V173.833C533.702 169.377 537.313 165.766 541.77 165.766H594.316C598.771 165.766 602.383 169.377 602.383 173.833V223.518C602.383 227.973 598.771 231.585 594.316 231.585Z" fill="white"/>
<path d="M545.847 171.444C542.402 171.444 539.603 174.245 539.603 177.688V219.664C539.603 223.107 542.402 225.908 545.847 225.908H590.238C593.683 225.908 596.483 223.107 596.483 219.664V177.688C596.483 174.245 593.683 171.444 590.238 171.444H545.847ZM590.238 227.048H545.847C541.775 227.048 538.463 223.735 538.463 219.664V177.688C538.463 173.617 541.775 170.304 545.847 170.304H590.238C594.31 170.304 597.623 173.617 597.623 177.688V219.664C597.623 223.735 594.31 227.048 590.238 227.048Z" fill="#602320"/>
<path d="M570.753 219.267L542.538 192.811L552.37 182.323L569.402 198.293L599.718 161.486L610.814 170.627L570.753 219.267Z" fill="#B8AE7C"/>
<path d="M550.719 223.693L539.462 234.576C537.519 236.082 528.239 231.007 528.239 231.007C528.239 231.007 529.063 227.332 533.128 224.517L547.267 214.526C549.642 212.933 550.764 212.864 551.579 213.627C552.397 214.39 555.745 218.738 550.719 223.693Z" fill="#FCA886"/>
<path d="M546.065 218.225C544.864 218.225 544.229 217.65 544.177 217.601L544.953 216.765C544.968 216.782 546.774 218.267 550.561 214.567L551.356 215.382C549.04 217.647 547.269 218.225 546.065 218.225Z" fill="#602320"/>
<path d="M373.986 225.288C369.02 225.288 364.959 221.225 364.959 216.259V213.117C364.959 208.153 369.02 204.09 373.986 204.09C378.952 204.09 383.013 208.153 383.013 213.117V216.259C383.013 221.225 378.952 225.288 373.986 225.288Z" fill="#602320"/>
<path d="M381.904 216.707H366.068C363.341 216.707 361.11 214.475 361.11 211.748V191.432C361.11 188.705 363.341 186.472 366.068 186.472H381.904C384.632 186.472 386.863 188.705 386.863 191.432V211.748C386.863 214.475 384.632 216.707 381.904 216.707Z" fill="#602320"/>
<path d="M412.722 146.592C412.722 124.561 394.332 106.827 372.065 107.902C353.195 108.814 337.371 123.735 335.458 142.533C334.155 155.335 339.098 167.013 347.601 174.921C353.076 180.013 356.131 187.188 356.131 194.663C356.131 198.725 359.454 202.047 363.515 202.047H384.458C388.519 202.047 391.842 198.725 391.842 194.663V193.572C391.842 186.428 395.099 179.813 400.336 174.955C407.953 167.888 412.722 157.803 412.722 146.592Z" fill="#DCA254"/>
<path d="M383.633 119.506C381.994 118.953 380.291 118.554 378.567 118.323L378.971 115.311C380.886 115.568 382.782 116.01 384.607 116.625L383.633 119.506Z" fill="white"/>
<path d="M401.174 138.251C399.411 131.6 395.215 125.909 389.36 122.229L390.978 119.656C397.486 123.748 402.153 130.074 404.113 137.472L401.174 138.251Z" fill="white"/>
<path d="M374.556 183.561H373.416V158.736H374.556V183.561Z" fill="#602320"/>
<path d="M378.602 185.702L377.697 185.009L390.13 168.773C383.041 168.998 377.651 166.024 373.982 159.877C370.062 166.357 364.661 169.381 357.897 168.843L370.276 185.009L369.371 185.702L355.333 167.369L356.714 167.567C363.997 168.596 369.482 165.622 373.489 158.457L373.992 157.556L374.486 158.462C378.177 165.233 383.663 168.211 391.291 167.562L392.576 167.453L378.602 185.702Z" fill="#602320"/>
<path d="M382.483 202.047V190.659C382.483 185.987 378.658 182.162 373.986 182.162C369.313 182.162 365.489 185.987 365.489 190.659V202.047H382.483Z" fill="white"/>
<path d="M369.974 204.018H377.998V191.617C377.998 189.405 376.198 187.605 373.987 187.605C371.775 187.605 369.974 189.405 369.974 191.617V204.018ZM379.138 205.158H368.834V191.617C368.834 188.776 371.146 186.465 373.987 186.465C376.828 186.465 379.138 188.776 379.138 191.617V205.158Z" fill="#602320"/>
<path d="M166.709 579.76C175.221 592.024 161.63 604.979 160.262 606.825C153.198 616.354 127.524 628.64 127.524 628.64C121.166 632.249 118.034 627.192 119.694 625.807C120.558 625.205 116.253 627.841 115.352 628.356C107.236 632.605 105.338 625.599 108.04 623.112C102.357 627.444 97.2013 621.528 100.647 618.453C96.2407 621.101 91.7506 615.488 97.4689 610.472C100.401 607.421 128.415 586.515 128.415 586.515C126.429 584.079 115.694 592.429 110.105 586.991C109.662 586.29 109.985 585.589 110.495 585.196C128.062 574.53 140.933 573.791 145.387 573.138C152.116 572.15 161.589 572.381 166.709 579.76Z" fill="#FCA886"/>
<path d="M120.483 626.298L119.807 625.38L136.569 613L137.246 613.916L120.483 626.298Z" fill="#602320"/>
<path d="M108.532 623.647L107.891 622.706L130.735 607.12L131.376 608.061L108.532 623.647Z" fill="#602320"/>
<path d="M101.029 618.787L100.365 617.862L125.238 600.029L125.902 600.956L101.029 618.787Z" fill="#602320"/>
<path d="M139.024 616.031C133.949 611.96 128.699 605.929 122.972 597.593L123.914 596.949C129.574 605.19 134.75 611.141 139.737 615.14L139.024 616.031Z" fill="#602320"/>
<path d="M142.992 593.099C134.184 593.099 128.082 586.992 128.008 586.916L128.821 586.116C128.911 586.21 137.947 595.221 149.707 590.676L150.116 591.738C147.607 592.71 145.213 593.099 142.992 593.099Z" fill="#602320"/>
<path d="M231.85 543.074C227.662 564.544 239.818 581.129 262.917 577.367C271.256 576.006 278.749 570.891 283.91 563.839L284.237 563.393C285.196 562.028 285.933 560.838 286.576 559.636L335.391 461.631C339.21 456.224 341.642 450.199 342.608 443.759C345.336 425.546 338.675 410.282 321.996 404.714C304.693 398.938 290.981 407.405 281.297 423.292L281.136 423.561C280.131 425.259 279.295 426.885 278.603 428.492L236.302 531.446L236.341 531.475L235.674 532.712C233.835 536.006 232.549 539.491 231.85 543.074Z" fill="white"/>
<path d="M177.024 601.94L163.349 565.066L150.289 569.91C156.799 575.888 164.664 601.517 163.965 606.784L177.024 601.94Z" fill="white"/>
<path d="M234.391 525.116C205.049 538.808 161.667 552.769 161.05 565.913L176.174 602.315C184.222 611.634 234.973 587.519 268.387 575.872C305.103 560.503 284.989 502.784 234.391 525.116Z" fill="white"/>
<path d="M176.721 602.473L175.626 602.158C177.719 594.905 169.021 571.943 160.731 566.386L161.366 565.439C170.144 571.323 178.948 594.757 176.721 602.473Z" fill="#602320"/>
<path d="M243.155 533.682L239.583 523.029C239.507 522.798 239.583 522.544 239.777 522.395C239.972 522.246 240.238 522.241 240.442 522.375L248.233 527.589L247.598 528.536L241.195 524.251L244.235 533.321L243.155 533.682Z" fill="#602320"/>
<path d="M89.136 681.857C114.745 697.501 148.185 689.422 163.827 663.815C179.471 638.206 171.392 604.766 145.785 589.122C120.177 573.48 86.7359 581.558 71.0936 607.166C55.4498 632.773 63.5286 666.215 89.136 681.857Z" fill="#602320"/>
<path d="M93.5861 674.572C115.17 687.756 143.357 680.947 156.541 659.364C169.727 637.78 162.918 609.593 141.334 596.409C119.75 583.223 91.5645 590.032 78.3785 611.616C65.1941 633.2 72.0021 661.386 93.5861 674.572Z" fill="white"/>
<path d="M81.0225 613.231L84.2479 615.203L81.0225 613.231Z" fill="white"/>
<path d="M83.951 615.689L80.7256 613.718L81.3199 612.745L84.5453 614.715L83.951 615.689Z" fill="#602320"/>
<path d="M150.672 655.778L153.899 657.75L150.672 655.778Z" fill="white"/>
<path d="M153.602 658.236L150.375 656.265L150.97 655.292L154.197 657.262L153.602 658.236Z" fill="#602320"/>
<path d="M95.2012 671.928L97.1726 668.703L95.2012 671.928Z" fill="white"/>
<path d="M95.6881 672.225L94.7137 671.631L96.6852 668.405L97.6595 668.999L95.6881 672.225Z" fill="#602320"/>
<path d="M137.748 602.278L139.719 599.051L137.748 602.278Z" fill="white"/>
<path d="M138.235 602.575L137.26 601.981L139.232 598.754L140.206 599.348L138.235 602.575Z" fill="#602320"/>
<path d="M74.7612 635.794L78.543 635.767L74.7612 635.794Z" fill="white"/>
<path d="M74.7672 636.364L74.7581 635.224L78.5383 635.196L78.5474 636.336L74.7672 636.364Z" fill="#602320"/>
<path d="M156.378 635.212L160.158 635.185L156.378 635.212Z" fill="white"/>
<path d="M156.383 635.782L156.374 634.642L160.154 634.615L160.163 635.755L156.383 635.782Z" fill="#602320"/>
<path d="M117.765 678.188L117.738 674.408L117.765 678.188Z" fill="white"/>
<path d="M117.195 678.192L117.168 674.412L118.308 674.403L118.335 678.183L117.195 678.192Z" fill="#602320"/>
<path d="M117.183 596.572L117.156 592.792L117.183 596.572Z" fill="white"/>
<path d="M116.613 596.577L116.586 592.796L117.726 592.787L117.753 596.568L116.613 596.577Z" fill="#602320"/>
<path d="M97.9027 597.533L99.6355 600.895L97.9027 597.533Z" fill="white"/>
<path d="M99.1288 601.156L97.396 597.794L98.4083 597.271L100.141 600.633L99.1288 601.156Z" fill="#602320"/>
<path d="M135.287 670.086L137.018 673.447L135.287 670.086Z" fill="white"/>
<path d="M136.511 673.708L134.78 670.347L135.792 669.824L137.524 673.185L136.511 673.708Z" fill="#602320"/>
<path d="M155.418 615.933L152.056 617.664L155.418 615.933Z" fill="white"/>
<path d="M152.317 618.17L151.794 617.158L155.156 615.426L155.679 616.439L152.317 618.17Z" fill="#602320"/>
<path d="M82.8645 653.316L79.5038 655.048L82.8645 653.316Z" fill="white"/>
<path d="M79.7651 655.554L79.2422 654.542L82.6029 652.809L83.1258 653.821L79.7651 655.554Z" fill="#602320"/>
<path d="M109.546 639.055L109.073 637.61L154.398 622.85L154.87 624.296L109.546 639.055Z" fill="#E0654A"/>
<path d="M121.553 643.082L100.719 602.611L121.553 643.082Z" fill="white"/>
<path d="M120.202 643.778L99.3678 603.307L102.069 601.914L122.903 642.386L120.202 643.778Z" fill="#602320"/>
<path d="M124.032 630.064L93.9529 654.524L124.032 630.064Z" fill="white"/>
<path d="M94.9118 655.702L92.9935 653.343L123.073 628.885L124.991 631.244L94.9118 655.702Z" fill="#602320"/>
<path d="M115.078 639.39C117.232 640.705 120.046 640.026 121.36 637.872C122.677 635.718 121.997 632.905 119.844 631.59C117.69 630.274 114.876 630.953 113.56 633.107C112.245 635.261 112.924 638.074 115.078 639.39Z" fill="white"/>
<path d="M115.375 638.904C116.29 639.461 117.365 639.629 118.4 639.378C119.438 639.126 120.317 638.487 120.873 637.575C121.431 636.663 121.6 635.588 121.349 634.55C121.098 633.512 120.458 632.634 119.546 632.077C117.663 630.925 115.196 631.522 114.047 633.404C112.898 635.286 113.494 637.753 115.375 638.904ZM117.45 640.632C116.517 640.632 115.597 640.376 114.781 639.878C112.364 638.399 111.597 635.228 113.073 632.81C113.79 631.638 114.919 630.816 116.254 630.493C117.591 630.17 118.97 630.387 120.141 631.103C121.311 631.819 122.135 632.948 122.457 634.283C122.779 635.617 122.563 636.998 121.847 638.169C121.132 639.34 120.002 640.164 118.668 640.486C118.263 640.583 117.856 640.632 117.45 640.632Z" fill="#602320"/>
<path d="M256.643 483.433L255.616 482.938L267.011 459.408L268.039 459.905L256.643 483.433Z" fill="#602320"/>
<path d="M404.342 364.241H348.72V461.55H404.342V364.241Z" fill="#FCA886"/>
<path d="M446.893 657.925C445.955 639.838 444.395 622.547 442.114 606.117H312.56C309.322 620.52 306.553 638.216 304.174 657.925H446.893Z" fill="#602320"/>
<path d="M453.638 389.388L405.467 400.262L377.657 412.894L348.771 401.386L298.274 388.594C298.274 388.594 296.321 500.538 304.482 551.736C309.82 585.235 293.551 606.164 311.794 611.723C335.81 617.793 417.62 617.751 442.66 611.723C461.13 607.003 444.854 585.235 450.192 551.736C458.353 500.538 453.638 389.388 453.638 389.388Z" fill="white"/>
<path d="M309.425 635.439L309.321 634.305C309.478 634.29 325.032 632.711 328.295 619.532L329.404 619.806C325.941 633.779 309.589 635.424 309.425 635.439Z" fill="#934A4A"/>
<path d="M445.474 635.439C445.309 635.424 428.959 633.779 425.496 619.806L426.604 619.532C429.868 632.711 445.42 634.29 445.577 634.305L445.474 635.439Z" fill="#934A4A"/>
<path d="M377.967 636.566C373.532 636.4 370.247 634.877 368.201 632.039C363.9 626.072 366.628 616.505 366.745 616.099L367.841 616.42C367.812 616.514 365.152 625.862 369.13 631.376C370.958 633.912 373.945 635.274 378.008 635.426L377.967 636.566Z" fill="#934A4A"/>
<path d="M377.727 657.142L376.587 657.133L376.933 616.256L378.073 616.263L377.727 657.142Z" fill="#934A4A"/>
<path d="M348.721 392.872L340.307 399.607C343.913 411.606 352.321 420.371 364.53 426.579L377.657 412.895C365.298 408.743 355.656 402.065 348.721 392.872Z" fill="white"/>
<path d="M404.355 392.872L412.768 399.607C409.164 411.606 400.755 420.371 388.547 426.579L375.419 412.895C387.778 408.743 397.419 402.065 404.355 392.872Z" fill="white"/>
<path d="M366.99 421.591L370.71 425.201L363.173 592.054L376.247 606.298V412.501C372.388 414.944 369.336 418.001 366.99 421.591Z" fill="#E0654A"/>
<path d="M381.783 425.201L385.504 421.591C383.159 418.001 380.107 414.944 376.246 412.501V606.298L389.32 592.054L381.783 425.201Z" fill="#E0654A"/>
<path d="M364.835 427.392L364.259 427.08C353.213 421.089 345.207 412.175 339.785 399.836L340.83 399.377C346.052 411.265 353.712 419.902 364.234 425.766C364.865 424.199 365.636 422.701 366.533 421.306L367.492 421.92C366.522 423.432 365.706 425.066 365.064 426.78L364.835 427.392Z" fill="#602320"/>
<path d="M387.678 427.392L387.448 426.78C386.805 425.06 385.986 423.422 385.013 421.906L385.972 421.291C386.872 422.692 387.646 424.194 388.278 425.766C398.801 419.902 406.461 411.265 411.683 399.377L412.727 399.836C407.306 412.175 399.3 421.089 388.254 427.08L387.678 427.392Z" fill="#602320"/>
<path d="M376.322 427.38C374.216 427.38 372.086 426.812 370.393 425.675L371.028 424.728C374.001 426.724 378.677 426.731 381.451 424.739L382.117 425.664C380.522 426.809 378.435 427.38 376.322 427.38Z" fill="#602320"/>
<path d="M301.143 528.275C298.99 501.728 297.853 476.05 297.763 451.954L298.903 451.951C298.993 476.017 300.128 501.664 302.28 528.182L301.143 528.275Z" fill="#602320"/>
<path d="M453.312 528.275L452.176 528.182C454.328 501.64 455.463 475.991 455.551 451.951L456.691 451.954C456.603 476.025 455.466 501.704 453.312 528.275Z" fill="#602320"/>
<path d="M378.135 384.901H374.928C354.756 384.901 338.252 368.397 338.252 348.225V314.446C338.252 294.274 354.756 277.77 374.928 277.77H378.135C398.305 277.77 414.811 294.274 414.811 314.446V348.225C414.811 368.397 398.305 384.901 378.135 384.901Z" fill="#FCA886"/>
<path d="M342.065 334.134C342.065 334.134 337.216 322.005 329.449 327.537C321.681 333.072 329.477 352.259 339.981 354.134C350.482 356.011 342.065 334.134 342.065 334.134Z" fill="#FCA886"/>
<path d="M410.997 334.134C410.997 334.134 415.846 322.005 423.613 327.537C431.379 333.072 423.583 352.259 413.081 354.134C402.58 356.011 410.997 334.134 410.997 334.134Z" fill="#FCA886"/>
<path d="M339.557 345.411C340.159 337.76 340.96 327.31 334.297 326.091L332.394 313.181C330.966 307.31 333.217 303.526 335.58 302.539C335.58 302.539 323.923 292.092 329.576 281.289C335.228 270.487 348.199 275.512 348.199 275.512C348.199 275.512 347.498 266.976 359.067 264.13C370.634 261.286 406.039 282.624 406.039 282.624C414.629 287.692 416.799 294.354 418.132 302.539C422.186 303.27 422.507 309.194 422.147 311.962L420.569 326.091C412.853 325.582 412.528 334.176 412.978 345.411C407.804 345.411 408.663 329.443 408.663 329.443L408.695 305.74C385.735 312.527 362.686 311.762 345.87 305.74L344.95 329.519C344.95 329.519 345.257 345.411 339.557 345.411Z" fill="#602320"/>
<path d="M332.968 343.889C331.056 341.086 329.118 335.599 331.033 332.719C331.713 331.696 333.187 330.609 336.337 331.253L336.107 332.371C334.073 331.957 332.687 332.287 331.983 333.349C330.579 335.461 331.871 340.259 333.909 343.246L332.968 343.889Z" fill="#602320"/>
<path d="M420.88 343.889L419.94 343.246C421.978 340.259 423.27 335.461 421.865 333.349C421.16 332.287 419.777 331.957 417.742 332.371L417.512 331.253C420.665 330.61 422.134 331.696 422.815 332.719C424.731 335.599 422.793 341.086 420.88 343.889Z" fill="#602320"/>
<path d="M376.639 386.299C365.646 386.299 355.38 381.955 348.471 374.377L349.314 373.61C356.006 380.95 365.967 385.159 376.639 385.159H376.645C387.294 385.157 397.235 380.947 403.92 373.61L404.763 374.377C397.861 381.952 387.613 386.297 376.646 386.299H376.639Z" fill="#602320"/>
<path d="M376.685 347.669L376.364 346.575C377.899 346.125 382.248 344.389 382.096 342.397C381.919 340.117 377.249 331.488 375.463 328.356L376.455 327.792C376.721 328.261 383.002 339.309 383.233 342.308C383.484 345.581 377.381 347.466 376.685 347.669Z" fill="#602320"/>
<path d="M361.796 339.03C361.792 340.308 360.766 341.341 359.504 341.337C358.244 341.332 357.226 340.291 357.23 339.013C357.236 337.733 358.262 336.701 359.522 336.705C360.782 336.71 361.801 337.751 361.796 339.03Z" fill="#602320"/>
<path d="M363.929 332.989C361.025 331.548 357.644 331.544 353.593 332.976L353.213 331.901C357.57 330.363 361.24 330.384 364.437 331.968L363.929 332.989Z" fill="#602320"/>
<path d="M396.595 339.162C396.59 340.42 395.581 341.437 394.34 341.433C393.1 341.427 392.098 340.404 392.103 339.145C392.107 337.886 393.117 336.871 394.357 336.876C395.597 336.88 396.599 337.903 396.595 339.162Z" fill="#602320"/>
<path d="M399.405 333.125C396.5 331.685 393.121 331.681 389.069 333.111L388.689 332.036C393.043 330.496 396.714 330.519 399.912 332.103L399.405 333.125Z" fill="#602320"/>
<path d="M367.771 351.219C370.533 360.679 383.83 361.74 387.261 351.431C381.313 352.883 374.752 352.634 367.771 351.219Z" fill="white"/>
<path d="M352.659 320.531C343.741 320.531 336.484 327.786 336.484 336.706C336.484 345.624 343.741 352.88 352.659 352.88C361.578 352.88 368.834 345.624 368.834 336.706C368.834 327.786 361.578 320.531 352.659 320.531ZM352.659 354.02C343.111 354.02 335.344 346.253 335.344 336.706C335.344 327.159 343.111 319.391 352.659 319.391C362.206 319.391 369.974 327.159 369.974 336.706C369.974 346.253 362.206 354.02 352.659 354.02Z" fill="white"/>
<path d="M400.574 320.531C391.656 320.531 384.4 327.786 384.4 336.706C384.4 345.624 391.656 352.88 400.574 352.88C409.494 352.88 416.75 345.624 416.75 336.706C416.75 327.786 409.494 320.531 400.574 320.531ZM400.574 354.02C391.027 354.02 383.26 346.253 383.26 336.706C383.26 327.159 391.027 319.391 400.574 319.391C410.121 319.391 417.89 327.159 417.89 336.706C417.89 346.253 410.121 354.02 400.574 354.02Z" fill="white"/>
<path d="M385.34 329.357C382.967 327.077 379.596 325.842 376.103 325.899C372.846 325.975 369.936 327.198 367.91 329.338L367.082 328.555C369.319 326.191 372.513 324.843 376.074 324.759C379.874 324.668 383.54 326.045 386.13 328.535L385.34 329.357Z" fill="white"/>
<path d="M377.333 362.679C375.509 362.679 373.682 362.256 371.825 361.411L372.298 360.373C375.693 361.919 378.978 361.919 382.345 360.373L382.819 361.41C380.977 362.256 379.157 362.679 377.333 362.679Z" fill="#602320"/>
<path d="M132.556 598.355L141.259 585.339C142.394 583.16 135.746 574.933 135.746 574.933C135.746 574.933 132.276 576.399 130.231 580.899L122.92 596.593C121.777 599.214 121.909 600.333 122.806 600.997C123.703 601.664 128.576 604.184 132.556 598.355Z" fill="#FCA886"/>
<path d="M124.492 600.466L123.548 599.827C126.516 595.441 124.73 593.931 124.711 593.916L125.397 593.006C125.509 593.088 128.121 595.105 124.492 600.466Z" fill="#602320"/>
<path d="M200.569 219.965L211.825 230.849C213.768 232.355 223.047 227.28 223.047 227.28C223.047 227.28 222.225 223.604 218.16 220.789L204.02 210.798C201.644 209.205 200.522 209.137 199.708 209.9C198.891 210.663 195.541 215.01 200.569 219.965Z" fill="#FCA886"/>
<path d="M205.222 214.498C204.018 214.498 202.247 213.92 199.93 211.654L200.725 210.839C204.516 214.544 206.319 213.054 206.334 213.039L207.109 213.875C207.058 213.923 206.422 214.498 205.222 214.498Z" fill="#602320"/>
</g>
</g>
<defs>
<clipPath id="clip0_275_2872">
<rect width="760" height="760" fill="white"/>
</clipPath>
</defs>
</svg>
