<svg width="961" height="197" viewBox="0 0 961 197" fill="none" xmlns="http://www.w3.org/2000/svg">
<rect x="26.0977" y="130.864" width="74.0105" height="74.0105" transform="rotate(-45 26.0977 130.864)" fill="#BCA8EA"/>
<path d="M26.1667 104.667L13.0833 91.5833L0 78.5L78.5 -2.41283e-06L157 78.5L130.833 104.667L78.5 52.3333L26.1667 104.667Z" fill="#5011DD"/>
<path d="M179.968 79.984V75.12H221.824C229.163 75.12 235.861 76.144 241.92 78.192C247.979 80.24 253.227 83.2267 257.664 87.152C262.101 90.992 265.515 95.728 267.904 101.36C270.379 106.907 271.616 113.221 271.616 120.304C271.616 127.387 270.379 133.744 267.904 139.376C265.515 144.923 262.101 149.701 257.664 153.712C253.227 157.723 247.979 160.795 241.92 162.928C235.861 164.976 229.163 166 221.824 166H179.968V161.136H181.12C183.339 161.136 185.259 160.837 186.88 160.24C188.587 159.643 189.44 158.405 189.44 156.528V84.592C189.44 82.7147 188.587 81.4773 186.88 80.88C185.259 80.2827 183.339 79.984 181.12 79.984H179.968ZM221.568 81.008H209.792V160.112H221.568C225.92 160.112 229.845 159.301 233.344 157.68C236.843 155.973 239.829 153.456 242.304 150.128C244.779 146.8 246.699 142.661 248.064 137.712C249.429 132.763 250.112 126.96 250.112 120.304C250.112 113.648 249.429 107.888 248.064 103.024C246.699 98.0747 244.779 93.9787 242.304 90.736C239.829 87.4933 236.843 85.0613 233.344 83.44C229.845 81.8187 225.92 81.008 221.568 81.008ZM305.145 133.232C305.145 137.925 305.572 142.064 306.425 145.648C307.278 149.147 308.558 152.048 310.265 154.352C311.972 156.656 314.02 158.405 316.409 159.6C318.884 160.709 321.7 161.264 324.857 161.264C328.185 161.264 331.086 160.667 333.561 159.472C336.121 158.277 338.34 156.699 340.217 154.736C342.18 152.688 343.801 150.427 345.081 147.952L349.689 151.408C348.068 154.651 345.934 157.467 343.289 159.856C340.729 162.245 337.657 164.08 334.073 165.36C330.489 166.64 326.393 167.28 321.785 167.28C314.788 167.28 308.558 165.915 303.097 163.184C297.636 160.368 293.369 156.4 290.297 151.28C287.225 146.16 285.689 140.101 285.689 133.104C285.689 126.107 287.14 120.005 290.041 114.8C293.028 109.509 297.081 105.456 302.201 102.64C307.406 99.7387 313.252 98.288 319.737 98.288C324.686 98.288 329.038 99.056 332.793 100.592C336.633 102.043 339.876 104.219 342.521 107.12C345.166 110.021 347.172 113.605 348.537 117.872C349.988 122.053 350.713 126.917 350.713 132.464H297.337L297.209 127.216H335.609L332.537 128.624C332.452 124.101 332.153 120.261 331.641 117.104C331.129 113.947 330.361 111.429 329.337 109.552C328.313 107.589 326.99 106.139 325.369 105.2C323.833 104.261 322.041 103.792 319.993 103.792C317.774 103.792 315.726 104.389 313.849 105.584C312.057 106.693 310.478 108.443 309.113 110.832C307.833 113.221 306.852 116.293 306.169 120.048C305.486 123.717 305.145 128.112 305.145 133.232ZM403.727 151.152C403.727 149.445 403.3 148.037 402.447 146.928C401.594 145.733 400.399 144.709 398.863 143.856C397.327 143.003 395.535 142.235 393.487 141.552C391.439 140.869 389.178 140.187 386.703 139.504C384.228 138.736 381.711 137.883 379.151 136.944C376.591 136.005 374.202 134.768 371.983 133.232C369.85 131.696 368.1 129.733 366.735 127.344C365.455 124.869 364.815 121.797 364.815 118.128C364.815 113.947 365.924 110.405 368.143 107.504C370.362 104.517 373.476 102.256 377.487 100.72C381.498 99.0987 386.234 98.288 391.695 98.288C395.876 98.288 399.546 98.6293 402.703 99.312C405.86 99.9947 408.463 100.805 410.511 101.744C412.559 102.683 414.01 103.493 414.863 104.176V116.336H401.423V103.152C402.106 103.237 402.703 103.493 403.215 103.92C403.812 104.261 404.282 104.773 404.623 105.456C404.964 106.053 405.178 106.651 405.263 107.248C405.348 107.76 405.306 108.187 405.135 108.528C404.282 107.589 403.215 106.779 401.935 106.096C400.74 105.328 399.332 104.731 397.711 104.304C396.09 103.877 394.17 103.664 391.951 103.664C387.684 103.664 384.527 104.603 382.479 106.48C380.516 108.272 379.535 110.533 379.535 113.264C379.535 115.227 379.962 116.805 380.815 118C381.754 119.195 383.034 120.219 384.655 121.072C386.276 121.925 388.154 122.693 390.287 123.376C392.506 123.973 394.81 124.613 397.199 125.296C399.844 126.064 402.447 126.96 405.007 127.984C407.652 128.923 410.042 130.117 412.175 131.568C414.394 133.019 416.143 134.896 417.423 137.2C418.788 139.419 419.471 142.149 419.471 145.392C419.471 149.915 418.319 153.797 416.015 157.04C413.711 160.283 410.383 162.8 406.031 164.592C401.679 166.384 396.388 167.28 390.159 167.28C385.636 167.28 381.583 166.896 377.999 166.128C374.415 165.36 371.343 164.421 368.783 163.312C366.308 162.117 364.303 160.965 362.767 159.856V146.544H377.103V162.16C376.25 161.648 375.524 161.136 374.927 160.624C374.415 160.112 374.031 159.643 373.775 159.216C373.604 158.704 373.519 158.192 373.519 157.68C373.519 157.168 373.647 156.656 373.903 156.144C374.927 157.424 376.25 158.491 377.871 159.344C379.492 160.112 381.327 160.752 383.375 161.264C385.423 161.691 387.556 161.904 389.775 161.904C392.762 161.904 395.279 161.477 397.327 160.624C399.375 159.771 400.954 158.533 402.063 156.912C403.172 155.291 403.727 153.371 403.727 151.152ZM510.988 166H475.788V161.264H475.916C476.684 161.264 477.537 161.221 478.476 161.136C479.5 161.051 480.353 160.923 481.036 160.752C481.804 160.496 482.188 160.24 482.188 159.984L462.22 131.952V130.416L488.076 106.864C488.076 106.181 487.649 105.669 486.796 105.328C485.943 104.987 484.876 104.731 483.596 104.56C482.401 104.389 481.121 104.304 479.756 104.304H478.476V99.568H505.74V104.304H505.484C504.204 104.304 502.881 104.475 501.516 104.816C500.151 105.157 498.743 105.755 497.292 106.608C495.927 107.376 494.519 108.4 493.068 109.68L473.996 126.96L476.94 121.328L502.284 156.912C503.052 157.936 503.948 158.789 504.972 159.472C505.996 160.069 507.02 160.539 508.044 160.88C509.068 161.136 509.964 161.264 510.732 161.264H510.988V166ZM460.172 70.256V159.472C460.172 159.899 460.513 160.283 461.196 160.624C461.964 160.88 462.86 161.051 463.884 161.136C464.993 161.221 466.103 161.264 467.212 161.264H467.34V166H433.036V161.264H433.164C434.615 161.264 435.895 161.179 437.004 161.008C438.199 160.752 439.137 160.368 439.82 159.856C440.503 159.259 440.844 158.405 440.844 157.296V79.984C440.844 78.96 440.588 78.192 440.076 77.68C439.649 77.0827 438.967 76.6133 438.028 76.272C437.089 75.8453 435.852 75.504 434.316 75.248L433.036 74.992V70.256H460.172ZM571.466 99.056V115.568C570.869 115.397 570.143 115.269 569.29 115.184C568.437 115.013 567.541 114.885 566.602 114.8C565.663 114.629 564.682 114.544 563.658 114.544C561.781 114.544 560.031 114.757 558.41 115.184C556.874 115.611 555.381 116.293 553.93 117.232C552.565 118.085 551.327 119.195 550.218 120.56C549.109 121.925 548.127 123.589 547.274 125.552L546.634 121.328C547.999 116.891 549.578 112.965 551.37 109.552C553.247 106.139 555.466 103.451 558.026 101.488C560.586 99.5253 563.573 98.544 566.986 98.544C568.01 98.544 568.906 98.5867 569.674 98.672C570.442 98.7573 571.039 98.8853 571.466 99.056ZM522.186 166V161.264H522.314C524.447 161.264 526.239 161.051 527.69 160.624C529.226 160.112 529.994 159.003 529.994 157.296V109.296C529.994 108.272 529.738 107.504 529.226 106.992C528.799 106.395 528.117 105.925 527.178 105.584C526.239 105.243 525.002 104.901 523.466 104.56L522.186 104.304V99.568H548.042V119.664L549.322 118.896V159.856C549.322 160.197 549.749 160.496 550.602 160.752C551.455 160.923 552.522 161.051 553.802 161.136C555.082 161.221 556.362 161.264 557.642 161.264H559.818V166H522.186ZM658.853 132.848C658.853 139.675 657.317 145.691 654.245 150.896C651.258 156.016 647.077 160.027 641.701 162.928C636.325 165.829 630.01 167.28 622.757 167.28C615.589 167.28 609.274 165.829 603.813 162.928C598.437 160.027 594.256 156.016 591.269 150.896C588.282 145.691 586.789 139.675 586.789 132.848C586.789 127.728 587.642 123.077 589.349 118.896C591.056 114.629 593.488 110.96 596.645 107.888C599.888 104.816 603.685 102.469 608.037 100.848C612.474 99.1413 617.381 98.288 622.757 98.288C628.218 98.288 633.125 99.1413 637.477 100.848C641.914 102.469 645.712 104.816 648.869 107.888C652.112 110.96 654.586 114.629 656.293 118.896C658 123.077 658.853 127.728 658.853 132.848ZM606.757 132.848C606.757 139.248 607.354 144.624 608.549 148.976C609.744 153.243 611.536 156.443 613.925 158.576C616.314 160.709 619.258 161.776 622.757 161.776C626.341 161.776 629.285 160.709 631.589 158.576C633.978 156.443 635.77 153.243 636.965 148.976C638.16 144.624 638.757 139.248 638.757 132.848C638.757 126.363 638.16 120.987 636.965 116.72C635.77 112.368 633.978 109.125 631.589 106.992C629.285 104.859 626.341 103.792 622.757 103.792C619.258 103.792 616.314 104.901 613.925 107.12C611.536 109.253 609.744 112.453 608.549 116.72C607.354 120.987 606.757 126.363 606.757 132.848ZM712.851 161.264C716.179 161.264 719.08 160.624 721.555 159.344C724.03 158.064 726.163 156.357 727.955 154.224C729.832 152.091 731.411 149.787 732.691 147.312L737.299 150.64C735.592 153.968 733.459 156.912 730.899 159.472C728.339 161.947 725.31 163.867 721.811 165.232C718.312 166.597 714.259 167.28 709.651 167.28C702.824 167.28 696.723 165.872 691.347 163.056C685.971 160.24 681.704 156.229 678.547 151.024C675.475 145.819 673.939 139.717 673.939 132.72C673.939 125.723 675.432 119.664 678.419 114.544C681.491 109.424 685.8 105.456 691.347 102.64C696.894 99.7387 703.379 98.288 710.803 98.288C714.814 98.288 718.483 98.672 721.811 99.44C725.139 100.208 727.955 101.147 730.259 102.256C732.648 103.28 734.483 104.304 735.763 105.328V120.304H720.787V104.048C721.555 104.219 722.195 104.517 722.707 104.944C723.304 105.285 723.816 105.755 724.243 106.352C724.67 106.949 724.968 107.589 725.139 108.272C725.395 108.955 725.395 109.595 725.139 110.192C724.03 108.485 722.323 106.992 720.019 105.712C717.8 104.432 715.07 103.792 711.827 103.792C707.902 103.792 704.616 104.901 701.971 107.12C699.326 109.339 697.32 112.581 695.955 116.848C694.59 121.115 693.907 126.405 693.907 132.72C693.907 137.413 694.291 141.552 695.059 145.136C695.912 148.635 697.15 151.621 698.771 154.096C700.392 156.485 702.355 158.277 704.659 159.472C707.048 160.667 709.779 161.264 712.851 161.264ZM828.273 166H793.073V161.264H793.201C793.969 161.264 794.822 161.221 795.761 161.136C796.785 161.051 797.638 160.923 798.321 160.752C799.089 160.496 799.473 160.24 799.473 159.984L779.505 131.952V130.416L805.361 106.864C805.361 106.181 804.934 105.669 804.081 105.328C803.228 104.987 802.161 104.731 800.881 104.56C799.686 104.389 798.406 104.304 797.041 104.304H795.761V99.568H823.025V104.304H822.769C821.489 104.304 820.166 104.475 818.801 104.816C817.436 105.157 816.028 105.755 814.577 106.608C813.212 107.376 811.804 108.4 810.353 109.68L791.281 126.96L794.225 121.328L819.569 156.912C820.337 157.936 821.233 158.789 822.257 159.472C823.281 160.069 824.305 160.539 825.329 160.88C826.353 161.136 827.249 161.264 828.017 161.264H828.273V166ZM777.457 70.256V159.472C777.457 159.899 777.798 160.283 778.481 160.624C779.249 160.88 780.145 161.051 781.169 161.136C782.278 161.221 783.388 161.264 784.497 161.264H784.625V166H750.321V161.264H750.449C751.9 161.264 753.18 161.179 754.289 161.008C755.484 160.752 756.422 160.368 757.105 159.856C757.788 159.259 758.129 158.405 758.129 157.296V79.984C758.129 78.96 757.873 78.192 757.361 77.68C756.934 77.0827 756.252 76.6133 755.313 76.272C754.374 75.8453 753.137 75.504 751.601 75.248L750.321 74.992V70.256H777.457ZM854.82 133.232C854.82 137.925 855.247 142.064 856.1 145.648C856.953 149.147 858.233 152.048 859.94 154.352C861.647 156.656 863.695 158.405 866.084 159.6C868.559 160.709 871.375 161.264 874.532 161.264C877.86 161.264 880.761 160.667 883.236 159.472C885.796 158.277 888.015 156.699 889.892 154.736C891.855 152.688 893.476 150.427 894.756 147.952L899.364 151.408C897.743 154.651 895.609 157.467 892.964 159.856C890.404 162.245 887.332 164.08 883.748 165.36C880.164 166.64 876.068 167.28 871.46 167.28C864.463 167.28 858.233 165.915 852.772 163.184C847.311 160.368 843.044 156.4 839.972 151.28C836.9 146.16 835.364 140.101 835.364 133.104C835.364 126.107 836.815 120.005 839.716 114.8C842.703 109.509 846.756 105.456 851.876 102.64C857.081 99.7387 862.927 98.288 869.412 98.288C874.361 98.288 878.713 99.056 882.468 100.592C886.308 102.043 889.551 104.219 892.196 107.12C894.841 110.021 896.847 113.605 898.212 117.872C899.663 122.053 900.388 126.917 900.388 132.464H847.012L846.884 127.216H885.284L882.212 128.624C882.127 124.101 881.828 120.261 881.316 117.104C880.804 113.947 880.036 111.429 879.012 109.552C877.988 107.589 876.665 106.139 875.044 105.2C873.508 104.261 871.716 103.792 869.668 103.792C867.449 103.792 865.401 104.389 863.524 105.584C861.732 106.693 860.153 108.443 858.788 110.832C857.508 113.221 856.527 116.293 855.844 120.048C855.161 123.717 854.82 128.112 854.82 133.232ZM911.945 104.944V100.08H912.201C914.505 100.08 916.425 99.8667 917.961 99.44C919.582 98.928 920.82 98.1173 921.673 97.008C922.612 95.8987 923.166 94.4053 923.337 92.528L928.457 99.568H956.233V104.944H911.945ZM940.233 147.952C940.233 151.28 940.574 153.883 941.257 155.76C942.025 157.637 943.092 158.96 944.457 159.728C945.908 160.496 947.614 160.88 949.577 160.88C951.454 160.88 953.076 160.667 954.441 160.24C955.892 159.728 956.873 159.429 957.385 159.344V164.976C956.702 165.317 955.721 165.659 954.441 166C953.246 166.427 951.838 166.725 950.217 166.896C948.596 167.152 946.804 167.28 944.841 167.28C940.233 167.28 936.094 166.597 932.425 165.232C928.841 163.867 925.982 161.605 923.849 158.448C921.801 155.291 920.777 151.067 920.777 145.776V100.592L922.697 99.568L924.233 82.416H940.233V147.952Z" fill="#150F5B"/>
</svg>
